<svg xmlns="http://www.w3.org/2000/svg" version="1.1" id="Capa_1" x="0" y="0" width="46.67" height="46.67" viewBox="0 0 46.67 46.67" xml:space="preserve">
    <path d="M16.61 22.65c1.67-1.33 2.58-3.21 2.58-5.43 0-3.56-2.93-7.39-9.35-7.39 -3.71 0-6.73 1.1-8.19 2.03l-0.87 0.56 1.92 6.83 1.56-0.96c0.81-0.5 2.62-1.24 4.28-1.24 0.81 0 2.17 0.15 2.17 1.13 0 1.01-1.76 1.39-2.87 1.39H4.22v6.81h3.68c0.36 0 3.47 0.06 3.47 2.1 0 1.67-2.31 1.8-3.02 1.8 -2.03 0-4.11-0.85-4.92-1.31l-1.55-0.86L0 35.1l0.89 0.54c1.49 0.9 4.34 1.87 7.87 1.87 6.72 0 11.24-3.5 11.24-8.72C20 26.19 18.71 23.97 16.61 22.65z" />
    <path d="M41.89 12.11c-2.71-2.04-6.14-2.94-11.09-2.94 -2.74 0-5.52 0.21-7.81 0.57l-1.17 0.19v26.88l1.2 0.16c1.29 0.18 3.49 0.38 6.6 0.38 5.35 0 9.65-1.23 12.46-3.56 2.1-1.8 4.59-5.2 4.59-11.16C46.67 18.07 45.02 14.43 41.89 12.11zM36.05 28.42c-1.18 1.16-2.91 1.75-5.24 1.75H30.8c-0.17 0-0.37 0-0.58 0V16.32c0.32-0.02 0.71-0.04 1.17-0.04 4.28 0 6.54 2.26 6.54 6.54C37.93 25.3 37.3 27.19 36.05 28.42z" />
</svg>