<?xml version="1.0" encoding="iso-8859-1"?>
<!-- Generator: Adobe Illustrator 16.0.0, SVG Export Plug-In . SVG Version: 6.00 Build 0)  -->
<!DOCTYPE svg PUBLIC "-//W3C//DTD SVG 1.1//EN" "http://www.w3.org/Graphics/SVG/1.1/DTD/svg11.dtd">
<svg version="1.1" id="Capa_1" xmlns="http://www.w3.org/2000/svg" xmlns:xlink="http://www.w3.org/1999/xlink" x="0px" y="0px"
	 width="46.669px" height="46.67px" viewBox="0 0 46.669 46.67" style="enable-background:new 0 0 46.669 46.67;"
	 xml:space="preserve">
<g>
	<g>
		<path d="M16.606,22.651c1.665-1.333,2.577-3.212,2.577-5.428c0-3.559-2.926-7.387-9.35-7.387c-3.707,0-6.73,1.096-8.193,2.033
			l-0.866,0.555l1.924,6.829l1.562-0.961c0.81-0.498,2.616-1.24,4.275-1.24c0.811,0,2.169,0.148,2.169,1.134
			c0,1.015-1.762,1.393-2.874,1.393H4.224v6.809h3.683c0.355,0,3.467,0.06,3.467,2.097c0,1.67-2.313,1.8-3.021,1.8
			c-2.033,0-4.106-0.855-4.919-1.309l-1.551-0.862L0,35.096l0.893,0.539c1.492,0.901,4.343,1.867,7.867,1.867
			c6.723,0,11.24-3.505,11.24-8.722C20,26.187,18.712,23.967,16.606,22.651z"/>
		<path d="M41.893,12.113c-2.715-2.037-6.137-2.945-11.093-2.945c-2.74,0-5.518,0.205-7.815,0.573l-1.167,0.188v26.879l1.2,0.161
			c1.292,0.175,3.486,0.384,6.596,0.384c5.349,0,9.651-1.227,12.461-3.558c2.096-1.802,4.594-5.202,4.594-11.165
			C46.671,18.07,45.017,14.434,41.893,12.113z M36.047,28.421c-1.18,1.161-2.911,1.751-5.245,1.751H30.8
			c-0.173,0-0.373,0-0.577-0.002V16.316c0.319-0.024,0.706-0.041,1.169-0.041c4.28,0,6.541,2.262,6.541,6.54
			C37.933,25.304,37.298,27.191,36.047,28.421z"/>
	</g>
</g>
<g>
</g>
<g>
</g>
<g>
</g>
<g>
</g>
<g>
</g>
<g>
</g>
<g>
</g>
<g>
</g>
<g>
</g>
<g>
</g>
<g>
</g>
<g>
</g>
<g>
</g>
<g>
</g>
<g>
</g>
</svg>
