<svg xmlns="http://www.w3.org/2000/svg" version="1.1" id="Capa_1" x="0" y="0" width="39.41" height="39.41" viewBox="0 0 39.41 39.41" xml:space="preserve">
    <path d="M33.61 20.96v12.38c0 1.1-0.9 2-2 2H7.81c-1.1 0-2-0.9-2-2V20.96c0-0.69 0.36-1.33 0.94-1.7l11.9-7.43c0.65-0.4 1.47-0.4 2.12 0l11.9 7.43C33.25 19.63 33.61 20.27 33.61 20.96zM38.48 15.43L20.77 4.37c-0.65-0.4-1.47-0.4-2.12 0L0.94 15.43c-0.94 0.59-1.22 1.82-0.64 2.76 0.58 0.94 1.82 1.22 2.76 0.64L19.71 8.43l16.65 10.4c0.33 0.21 0.7 0.3 1.06 0.3 0.67 0 1.32-0.33 1.7-0.94C39.7 17.25 39.41 16.02 38.48 15.43z" />
</svg>