<svg xmlns="http://www.w3.org/2000/svg" version="1.1" id="Capa_1" x="0" y="0" width="34.25" height="34.25" viewBox="0 0 34.25 34.25" xml:space="preserve">
    <rect width="5.19" height="5.28" />
    <rect x="7.13" width="5.19" height="5.28" />
    <rect x="14.27" width="5.19" height="5.28" />
    <rect x="21.4" width="5.19" height="5.28" />
    <rect x="29.06" width="5.19" height="5.28" />
    <rect y="7.24" width="5.19" height="5.27" />
    <rect x="7.13" y="7.24" width="5.19" height="5.27" />
    <rect x="14.27" y="7.24" width="5.19" height="5.27" />
    <rect x="21.4" y="7.24" width="5.19" height="5.27" />
    <rect x="29.06" y="7.24" width="5.19" height="5.27" />
    <rect y="14.49" width="5.19" height="5.28" />
    <rect x="7.13" y="14.49" width="5.19" height="5.28" />
    <rect x="14.27" y="14.49" width="5.19" height="5.28" />
    <rect x="21.4" y="14.49" width="5.19" height="5.28" />
    <rect x="29.06" y="14.49" width="5.19" height="5.28" />
    <rect y="21.73" width="5.19" height="5.27" />
    <rect x="7.13" y="21.73" width="5.19" height="5.27" />
    <rect x="14.27" y="21.73" width="5.19" height="5.27" />
    <rect x="21.4" y="21.73" width="5.19" height="5.27" />
    <rect x="29.06" y="21.73" width="5.19" height="5.27" />
    <rect y="28.98" width="5.19" height="5.28" />
    <rect x="7.13" y="28.98" width="5.19" height="5.28" />
    <rect x="14.27" y="28.98" width="5.19" height="5.28" />
    <rect x="21.4" y="28.98" width="5.19" height="5.28" />
    <rect x="29.06" y="28.98" width="5.19" height="5.28" />
</svg>